<mxfile host="app.diagrams.net" modified="2023-12-13T02:56:36.000Z" agent="Mozilla/5.0 (Macintosh; Intel Mac OS X 10_15_7) AppleWebKit/605.1.15 (KHTML, like Gecko) Version/16.3 Safari/605.1.15" etag="LACSQnGmxloYzkO40uSp" version="22.1.8" type="github">
  <diagram name="Page-1" id="b9AImQZlRmDhaym1XPzb">
    <mxGraphModel dx="1644" dy="521" grid="1" gridSize="10" guides="1" tooltips="1" connect="1" arrows="1" fold="1" page="1" pageScale="1" pageWidth="850" pageHeight="1100" math="1" shadow="0">
      <root>
        <mxCell id="0" />
        <mxCell id="1" parent="0" />
        <mxCell id="L88049jEslaWu98cFjgm-1" value="" style="shape=image;verticalLabelPosition=bottom;labelBackgroundColor=default;verticalAlign=top;aspect=fixed;imageAspect=0;image=https://i.etsystatic.com/19934258/r/il/329e2e/1883115379/il_570xN.1883115379_aqot.jpg;" vertex="1" parent="1">
          <mxGeometry x="540" y="170" width="80" height="80" as="geometry" />
        </mxCell>
        <mxCell id="L88049jEslaWu98cFjgm-2" value="Classical Verifier" style="rounded=0;whiteSpace=wrap;html=1;" vertex="1" parent="1">
          <mxGeometry x="490" y="270" width="110" height="30" as="geometry" />
        </mxCell>
        <mxCell id="L88049jEslaWu98cFjgm-3" value="" style="image;html=1;image=img/lib/clip_art/computers/Laptop_128x128.png" vertex="1" parent="1">
          <mxGeometry x="470" y="179" width="80" height="80" as="geometry" />
        </mxCell>
        <mxCell id="L88049jEslaWu98cFjgm-4" value="" style="sketch=0;outlineConnect=0;fontColor=#232F3E;gradientColor=none;fillColor=#ED7100;strokeColor=none;dashed=0;verticalLabelPosition=bottom;verticalAlign=top;align=center;html=1;fontSize=12;fontStyle=0;aspect=fixed;pointerEvents=1;shape=mxgraph.aws4.braket_qpu;" vertex="1" parent="1">
          <mxGeometry x="180" y="180" width="78" height="78" as="geometry" />
        </mxCell>
        <mxCell id="L88049jEslaWu98cFjgm-5" value="Quantum Prover" style="rounded=0;whiteSpace=wrap;html=1;" vertex="1" parent="1">
          <mxGeometry x="164" y="270" width="110" height="30" as="geometry" />
        </mxCell>
        <mxCell id="L88049jEslaWu98cFjgm-6" value="" style="endArrow=classic;html=1;rounded=0;" edge="1" parent="1">
          <mxGeometry width="50" height="50" relative="1" as="geometry">
            <mxPoint x="300" y="470" as="sourcePoint" />
            <mxPoint x="440" y="470" as="targetPoint" />
          </mxGeometry>
        </mxCell>
        <mxCell id="L88049jEslaWu98cFjgm-7" value="QMA Batch \( x_1, \cdots, x_k \)" style="rounded=0;whiteSpace=wrap;html=1;" vertex="1" parent="1">
          <mxGeometry x="309" y="160" width="110" height="30" as="geometry" />
        </mxCell>
        <mxCell id="L88049jEslaWu98cFjgm-9" value="" style="verticalLabelPosition=bottom;verticalAlign=top;html=1;shape=mxgraph.basic.tick;fillColor=#d5e8d4;strokeColor=#82b366;" vertex="1" parent="1">
          <mxGeometry x="620" y="210" width="30" height="30" as="geometry" />
        </mxCell>
        <mxCell id="L88049jEslaWu98cFjgm-10" value="Prover generates quantum proofs:&lt;br&gt;\( |\pi_j\rangle \leftarrow&amp;nbsp;\textcolor{red}{&lt;br&gt;P_{FHM}}(x_j, |\phi_j\rangle^{\otimes k(\lambda)}) \) for all \( j \in [k]\)" style="text;html=1;align=center;verticalAlign=middle;resizable=0;points=[];autosize=1;strokeColor=none;fillColor=none;" vertex="1" parent="1">
          <mxGeometry x="-20" y="310" width="390" height="60" as="geometry" />
        </mxCell>
        <mxCell id="L88049jEslaWu98cFjgm-11" value="&lt;div style=&quot;border-color: var(--border-color); text-align: right;&quot;&gt;compute commitments for all \( j \in [k]\)&lt;/div&gt;&lt;div style=&quot;border-color: var(--border-color); text-align: right;&quot;&gt;$$(\vec{y}_j, |st_j\rangle) \leftarrow \textcolor{green}{Commit}(PK_j, |\pi_j\rangle)$$&lt;/div&gt;" style="text;html=1;strokeColor=none;fillColor=none;align=center;verticalAlign=middle;whiteSpace=wrap;rounded=0;" vertex="1" parent="1">
          <mxGeometry x="78.5" y="430" width="200" height="30" as="geometry" />
        </mxCell>
        <mxCell id="L88049jEslaWu98cFjgm-12" value="\( \vec{y} = \{ \vec{y}_1, \cdots,&amp;nbsp;\vec{y}_k&lt;br&gt;\}\)" style="text;html=1;strokeColor=none;fillColor=none;align=center;verticalAlign=middle;whiteSpace=wrap;rounded=0;" vertex="1" parent="1">
          <mxGeometry x="340" y="440" width="60" height="30" as="geometry" />
        </mxCell>
        <mxCell id="L88049jEslaWu98cFjgm-13" value="generate random bit for all \( j \in [k]\)&lt;br&gt;\(c_j \xleftarrow{$} \{0,1\}\)" style="text;html=1;align=center;verticalAlign=middle;resizable=0;points=[];autosize=1;strokeColor=none;fillColor=none;" vertex="1" parent="1">
          <mxGeometry x="425" y="491" width="220" height="40" as="geometry" />
        </mxCell>
        <mxCell id="L88049jEslaWu98cFjgm-14" value="" style="endArrow=classic;html=1;rounded=0;" edge="1" parent="1">
          <mxGeometry width="50" height="50" relative="1" as="geometry">
            <mxPoint x="440" y="531" as="sourcePoint" />
            <mxPoint x="300" y="531" as="targetPoint" />
          </mxGeometry>
        </mxCell>
        <mxCell id="L88049jEslaWu98cFjgm-15" value="\( \{ c_j\}_{j=1}^k \)" style="text;html=1;align=center;verticalAlign=middle;resizable=0;points=[];autosize=1;strokeColor=none;fillColor=none;" vertex="1" parent="1">
          <mxGeometry x="310" y="501" width="120" height="30" as="geometry" />
        </mxCell>
        <mxCell id="L88049jEslaWu98cFjgm-16" value="&lt;div style=&quot;border-color: var(--border-color); caret-color: rgb(0, 0, 0); color: rgb(0, 0, 0); font-family: Helvetica; font-size: 12px; font-style: normal; font-variant-caps: normal; font-weight: 400; letter-spacing: normal; text-align: right; text-indent: 0px; text-transform: none; word-spacing: 0px; -webkit-text-stroke-width: 0px; text-decoration: none;&quot;&gt;compute openings for all \( j \in [k]\)&lt;/div&gt;&lt;div style=&quot;border-color: var(--border-color); caret-color: rgb(0, 0, 0); color: rgb(0, 0, 0); font-family: Helvetica; font-size: 12px; font-style: normal; font-variant-caps: normal; font-weight: 400; letter-spacing: normal; text-align: right; text-indent: 0px; text-transform: none; word-spacing: 0px; -webkit-text-stroke-width: 0px; text-decoration: none;&quot;&gt;$$\vec{z}_j \leftarrow \textcolor{green}{Open}(|st_j\rangle, c_j)$$&lt;br&gt;&lt;/div&gt;" style="text;whiteSpace=wrap;html=1;" vertex="1" parent="1">
          <mxGeometry x="99.5" y="531" width="179" height="50" as="geometry" />
        </mxCell>
        <mxCell id="L88049jEslaWu98cFjgm-17" value="" style="endArrow=classic;html=1;rounded=0;" edge="1" parent="1">
          <mxGeometry width="50" height="50" relative="1" as="geometry">
            <mxPoint x="300" y="591" as="sourcePoint" />
            <mxPoint x="440" y="591" as="targetPoint" />
          </mxGeometry>
        </mxCell>
        <mxCell id="L88049jEslaWu98cFjgm-18" value="\( \vec{z} = \{ \vec{z}_1, \cdots,&amp;nbsp;\vec{z}_k&lt;br style=&quot;border-color: var(--border-color);&quot;&gt;\}\)" style="text;html=1;strokeColor=none;fillColor=none;align=center;verticalAlign=middle;whiteSpace=wrap;rounded=0;" vertex="1" parent="1">
          <mxGeometry x="340" y="561" width="60" height="30" as="geometry" />
        </mxCell>
        <mxCell id="L88049jEslaWu98cFjgm-19" value="&lt;div style=&quot;border-color: var(--border-color); text-align: left;&quot;&gt;for all \( j \in [k]\)&lt;/div&gt;&lt;div style=&quot;border-color: var(--border-color); text-align: left;&quot;&gt;&lt;span style=&quot;white-space: pre;&quot;&gt;&#x9;&lt;/span&gt;if \(c_j=0\) test round, check:&lt;/div&gt;&lt;div style=&quot;border-color: var(--border-color); text-align: left;&quot;&gt;&lt;span style=&quot;white-space: pre;&quot;&gt;&#x9;&lt;span style=&quot;white-space: pre;&quot;&gt;&#x9;&lt;/span&gt;&lt;/span&gt;\(\textcolor{blue}{Test}(PK_j, (\vec{y}_j, \vec{z}_j))=acc\)&lt;/div&gt;&lt;div style=&quot;border-color: var(--border-color); text-align: left;&quot;&gt;&lt;span style=&quot;white-space: pre;&quot;&gt;&#x9;&lt;/span&gt;if \(c_j=1\) output, check:&lt;/div&gt;&lt;div style=&quot;border-color: var(--border-color); text-align: left;&quot;&gt;&lt;span style=&quot;white-space: pre;&quot;&gt;&#x9;&lt;span style=&quot;white-space: pre;&quot;&gt;&#x9;&lt;/span&gt;&lt;/span&gt;\(\textcolor{red}{V_{FHM}}(x_j,\textcolor{blue}{Out}(SK_j, (\vec{y}_j, \vec{z}_j)))=acc\)&lt;/div&gt;" style="text;html=1;align=center;verticalAlign=middle;resizable=0;points=[];autosize=1;strokeColor=none;fillColor=none;" vertex="1" parent="1">
          <mxGeometry x="315" y="600" width="530" height="80" as="geometry" />
        </mxCell>
        <mxCell id="L88049jEslaWu98cFjgm-20" value="" style="endArrow=classic;html=1;rounded=0;" edge="1" parent="1">
          <mxGeometry width="50" height="50" relative="1" as="geometry">
            <mxPoint x="440" y="410" as="sourcePoint" />
            <mxPoint x="300" y="410" as="targetPoint" />
          </mxGeometry>
        </mxCell>
        <mxCell id="L88049jEslaWu98cFjgm-21" value="\( PK = \{ PK_j \}_{j=1}^{k} \)&amp;nbsp;" style="text;html=1;align=center;verticalAlign=middle;resizable=0;points=[];autosize=1;strokeColor=none;fillColor=none;" vertex="1" parent="1">
          <mxGeometry x="289" y="380" width="180" height="30" as="geometry" />
        </mxCell>
        <mxCell id="L88049jEslaWu98cFjgm-22" value="&lt;div style=&quot;border-color: var(--border-color); text-align: left;&quot;&gt;Generate master keys for all \( j \in [k]\)&lt;/div&gt;&lt;div style=&quot;border-color: var(--border-color); text-align: left;&quot;&gt;$$(PK_j,SK_j)\leftarrow \textcolor{blue}{Gen}(1^\lambda, C_j)$$&lt;/div&gt;" style="text;html=1;align=center;verticalAlign=middle;resizable=0;points=[];autosize=1;strokeColor=none;fillColor=none;" vertex="1" parent="1">
          <mxGeometry x="335" y="340" width="370" height="40" as="geometry" />
        </mxCell>
      </root>
    </mxGraphModel>
  </diagram>
</mxfile>
